<svg xmlns="http://www.w3.org/2000/svg" viewBox="0 0 24 24" fill="none" stroke="currentColor" stroke-width="2" stroke-linecap="round" stroke-linejoin="round">

    <circle cx="12" cy="12" r="3"></circle>

    <path d="
        M12 2.5
        L13.2 2.5
        L13.8 5
        A7.5 7.5 0 0 1 16.2 6
        L18.2 4.5
        L19.5 5.8
        L18 7.8
        A7.5 7.5 0 0 1 19 10.2
        L21.5 10.8
        L21.5 13.2
        L19 13.8
        A7.5 7.5 0 0 1 18 16.2
        L19.5 18.2
        L18.2 19.5
        L16.2 18
        A7.5 7.5 0 0 1 13.8 19
        L13.2 21.5
        L10.8 21.5
        L10.2 19
        A7.5 7.5 0 0 1 7.8 18
        L5.8 19.5
        L4.5 18.2
        L6 16.2
        A7.5 7.5 0 0 1 5 13.8
        L2.5 13.2
        L2.5 10.8
        L5 10.2
        A7.5 7.5 0 0 1 6 7.8
        L4.5 5.8
        L5.8 4.5
        L7.8 6
        A7.5 7.5 0 0 1 10.2 5
        L10.8 2.5
        Z"></path>
</svg>